# xmcd CD database file
#
# Track frame offsets:
#	150
#	11164
#	26301
#	47415
#	66660
#	82813
#	97807
#	115758
#	133096
#	152318
#
# Disc length: 2328 seconds
#
# Revision: 0
# Processed by: cddbd v1.5.1PL0 Copyright (c) Steve Scherf et al.
# Submitted via: CDex 1.51
#
DISCID=6d09160a
DTITLE=Anja Garbarek - Smiling and Waving
DYEAR=2001
DGENRE=Jazz
TTITLE0=Her Room
TTITLE1=The Gown
TTITLE2=The Context
TTITLE3=Stay Tuned
TTITLE4=You Know
TTITLE5=Big Mouth
TTITLE6=The Diver
TTITLE7=That's All
TTITLE8=And Then
TTITLE9=It Seems We Talk
EXTD=YEAR: 2001
EXTT0=
EXTT1=
EXTT2=
EXTT3=
EXTT4=
EXTT5=
EXTT6=
EXTT7=
EXTT8=
EXTT9=
PLAYORDER=
